<?xml version="1.0" encoding="UTF-8"?>
<svg width="8px" height="8px" viewBox="0 0 8 8" version="1.1" xmlns="http://www.w3.org/2000/svg" xmlns:xlink="http://www.w3.org/1999/xlink">
    <!-- Generator: Sketch 50.2 (55047) - http://www.bohemiancoding.com/sketch -->
    <title>Shape</title>
    <desc>Created with Sketch.</desc>
    <defs></defs>
    <g id="Symbols" stroke="none" stroke-width="1" fill="none" fill-rule="evenodd">
        <g id="bookmark/light/delete" transform="translate(-20.000000, -12.000000)" fill="#ED5564">
            <g id="bookmark">
                <path d="M27.706037,12.2926829 C27.3121232,11.902439 26.6742627,11.902439 26.2793491,12.2926829 L23.9798521,14.5941213 L21.7413418,12.3527205 C21.3514271,11.9624765 20.7175657,11.9624765 20.3266513,12.3527205 C19.9357368,12.7429644 19.9357368,13.3833646 20.3266513,13.7736085 L22.5651616,16.0050031 L20.2976576,18.2764228 C19.9037438,18.6666667 19.9037438,19.3070669 20.2976576,19.7073171 C20.6915714,20.097561 21.3304317,20.097561 21.7243455,19.7073171 L23.9918495,17.4358974 L26.2303598,19.6772983 C26.6212743,20.0675422 27.2551356,20.0675422 27.6450504,19.6772983 C28.0369646,19.2870544 28.0369646,18.6466542 27.6450504,18.2564103 L25.40654,16.0250156 L27.706037,13.7235772 C28.1009506,13.3233271 28.1009506,12.6929331 27.706037,12.2926829 Z" id="Shape"></path>
            </g>
        </g>
    </g>
</svg>